# xmcd
#
# Track frame offsets:
#	150
#	14472
#	30547
#	46104
#	59161
#	70068
#	88397
#	125257
#	136173
#	150998
#	176001
#	188068
#	213856
#	228439
#	241221
#	255490
#
# Disc length: 3557 seconds
#
# Revision: 0
# Processed by: cddbd v1.5.1PL0 Copyright (c) Steve Scherf et al.
# Submitted via: dBpowerAMP V4.0
#
DISCID=d10de310
DTITLE=McAnthony's Blues Gang - What the Hell
DYEAR=1999
DGENRE=Blues
TTITLE0=Are you ready for some action?
TTITLE1=Leavin Blues
TTITLE2=When you had me
TTITLE3=Corinna, Corinna
TTITLE4=High healed sneakers
TTITLE5=Black, brown and white
TTITLE6=Confusion
TTITLE7=Automobile
TTITLE8=More pretty girls
TTITLE9=Mama sings the blues
TTITLE10=Dark road
TTITLE11=I'm wonderin' why
TTITLE12=The Bluesgang
TTITLE13=Call of the Wild
TTITLE14=What the Hell
TTITLE15=That's allright
EXTD=
EXTT0=
EXTT1=
EXTT2=
EXTT3=
EXTT4=
EXTT5=
EXTT6=
EXTT7=
EXTT8=
EXTT9=
EXTT10=
EXTT11=
EXTT12=
EXTT13=
EXTT14=
EXTT15=
PLAYORDER=
